HIERARCHY
ROOT Spine
{
    OFFSET 0.0 0.0 -0.0
    CHANNELS 6 Xposition Yposition Zposition Zrotation Xrotation Yrotation
    JOINT ShoulderCenter
    {
        OFFSET 0.0 20.232778549194336 0.0
        CHANNELS 3 Zrotation Xrotation Yrotation
        JOINT LeftShoulder
        {
            OFFSET 14.722428321838379 0.0 0.0
            CHANNELS 3 Zrotation Xrotation Yrotation
            JOINT LeftElbow
            {
                OFFSET 21.5341739654541 0.0 0.0
                CHANNELS 3 Zrotation Xrotation Yrotation
                JOINT LeftHand
                {
                    OFFSET 23.34282684326172 0.0 0.0
                    CHANNELS 3 Zrotation Xrotation Yrotation
                    End Site
                    {
                        OFFSET 9.33713150024414 0.0 0.0
                    }
                }
            }
        }
        JOINT RightShoulder
        {
            OFFSET -14.722428321838379 0.0 0.0
            CHANNELS 3 Zrotation Xrotation Yrotation
            JOINT RightElbow
            {
                OFFSET -21.5341739654541 0.0 0.0
                CHANNELS 3 Zrotation Xrotation Yrotation
                JOINT RightHand
                {
                    OFFSET -23.34282684326172 0.0 0.0
                    CHANNELS 3 Zrotation Xrotation Yrotation
                    End Site
                    {
                        OFFSET -9.33713150024414 0.0 0.0
                    }
                }
            }
        }
        End Site
        {
            OFFSET 0.0 8.093111991882324 0.0
        }
    }
    JOINT LeftHip
    {
        OFFSET 18.79766437195193 -18.79766437195193 0.0
        CHANNELS 3 Zrotation Xrotation Yrotation
        JOINT LeftKnee
        {
            OFFSET 0.0 -35.68790817260742 0.0
            CHANNELS 3 Zrotation Xrotation Yrotation
            JOINT LeftFoot
            {
                OFFSET 0.0 -39.69482421875 0.0
                CHANNELS 3 Zrotation Xrotation Yrotation
                End Site
                {
                    OFFSET 0.0 0.0 15.8779296875
                }
            }
        }
    }
    JOINT RightHip
    {
        OFFSET -18.79766437195193 -18.79766437195193 0.0
        CHANNELS 3 Zrotation Xrotation Yrotation
        JOINT RightKnee
        {
            OFFSET 0.0 -35.68790817260742 0.0
            CHANNELS 3 Zrotation Xrotation Yrotation
            JOINT RightFoot
            {
                OFFSET 0.0 -39.69482421875 0.0
                CHANNELS 3 Zrotation Xrotation Yrotation
                End Site
                {
                    OFFSET 0.0 0.0 15.8779296875
                }
            }
        }
    }
}
MOTION
Frames: 8
Frame Time: 0.03333333333333333
0.2196917086839676 -46.66297149658203 -292.8603820800781 15.337282094818235 20.556922270865428 -6.373370003672067 -5.681653705962217e-07 -2.210739501559202e-06 175.70704106765962 -61.36581486018452 -9.068576477898622 5.867349368390801 1.268608835206959e-06 1.9958399697610198e-06 56.85562888223866 6.361109362927033e-15 0.0 0.0 128.7133354824438 66.63603079392404 -44.3486347650528 1.58802155142502e-06 -1.7605627255365233e-06 -34.452118445931355 -7.951386703658792e-16 -6.3611093629270335e-15 -4.4139062980501586e-32 155.65878363417374 -56.98706026169265 -129.81518081865707 93.12801238163503 31.883301766097993 -63.78552603857655 -7.951386703658791e-16 -1.5902773407317582e-15 2.484808344893372e-15 -159.35324510733417 -52.57779314631282 128.04870440153658 -86.99223400782164 11.219848752939921 22.441562892366033 0.0 0.0 -5.5659706925611536e-15
0.4299831986427307 -46.88254165649414 -293.3087158203125 12.239464082458396 16.658630689736533 -5.73153387329548 3.9036652298581104e-07 1.729183395400815e-06 175.76365194739157 -64.38172692723171 -11.50857244284245 2.06682889847239 6.612423737227129e-07 1.0352594812040565e-06 56.95578718480382 0.0 0.0 -1.5902773407317582e-15 175.0513266893084 73.61488750561382 -86.74890850544486 1.3687841580682936e-06 -2.6802383947645242e-06 -50.285827091090034 -1.5902773407317584e-15 4.4139062980501586e-32 -3.1805546814635168e-15 154.74026939019996 -60.479015734301136 -133.37184154115454 92.91230570608148 31.401390564025764 -64.3679656061164 2.715586882589453e-32 1.7890620083232284e-15 -1.7393658414253607e-15 -154.86651638963178 -56.408562625167264 130.56005890300327 -86.8159245076091 11.373197277272748 23.375794479594383 -1.5902773407317584e-15 -7.951386703658791e-16 -8.94531004161614e-15
0.2854689955711365 -46.69139099121094 -293.2502136230469 13.996441383685697 18.057933243057725 -6.450942060244629 -4.383382256360265e-07 -1.3121499832401693e-06 175.81302133765877 -62.85618859578949 -9.603524786864376 4.200587900628502 1.4007363327378628e-06 2.7688439695582377e-06 56.14175357348447 7.951386703658791e-16 -1.5902773407317582e-15 -1.5902773407317582e-15 175.83182524754184 72.3531404918334 -85.06903239454708 -1.4758103848211003e-06 3.824173419113601e-06 -50.90161050250916 -4.770832022195275e-15 -6.3611093629270335e-15 -2.648343778830095e-31 154.04854591574062 -59.11188395157802 -132.681781583859 92.66473262282918 31.47274080824297 -64.38424365625708 0.0 0.0 -2.683593012484843e-15 -157.3294924815182 -55.002654220259664 129.07474943501748 -87.00097687138172 11.121179250890467 22.930848701019617 1.5862475758617757e-32 -7.951386703658791e-16 2.286023677301902e-15
0.4079861044883728 -46.785770416259766 -293.5570983886719 13.189209318736038 16.95829326437575 -6.536861629304556 -4.807145020116813e-07 -5.508099022004359e-07 175.99185183121816 -63.575938006941584 -10.560647066727523 3.7926756234493944 1.740853262647006e-07 -8.427303815413681e-07 54.552443919396325 1.590277340731758e-15 3.180554681463516e-15 -3.180554681463516e-15 160.12822275453854 74.01470363354545 -70.39477003289764 1.0930837365866597e-06 -1.4266150204590125e-06 -46.26656321870212 1.5902773407317584e-15 0.0 0.0 153.1382450926215 -59.76511763017689 -134.13081076967765 92.46328157952426 30.95036338905782 -64.65838257217828 -1.077613842297402e-33 9.939233379573489e-17 1.242404172446686e-15 -156.07938010658782 -55.98027258199627 129.77077080538868 -87.02852071678741 11.439819484729258 24.144535171535974 0.0 0.0 -8.34895603884173e-15
0.4953532814979553 -46.89522171020508 -293.7659912109375 13.083676132403937 16.57362195608069 -6.346703785423661 -3.8127970749800495e-07 7.49939390226929e-07 175.20900879583567 -62.1174737269611 -13.338042421449819 4.94911588862177 1.0716871570971049e-06 2.965658324447553e-06 54.96781658771199 -1.5902773407317584e-15 0.0 0.0 143.90350640696798 72.07201304549392 -55.08479456976588 -1.5176733115274205e-06 1.5972924724998449e-06 -32.7992623007355 -1.5902773407317584e-15 -4.4139062980501586e-32 3.1805546814635168e-15 153.21623617909256 -59.87635232496744 -133.99529730690733 92.30116097950297 30.89991274028719 -64.7518563836988 3.975693351829396e-16 7.58640144977371e-33 2.1866313435061676e-15 -155.30933924966521 -55.804690770373824 130.45644265833693 -87.2978538031303 11.423318329073657 24.680702252117193 0.0 0.0 -2.7829853462805768e-15
0.5245184898376465 -46.90951919555664 -293.92010498046875 13.103086453871333 16.16209470171405 -6.35050880633501 -1.885251196501116e-07 -3.3024650317805337e-07 175.42584763098068 -61.70439045327619 -13.397548870496973 4.047617807470544 1.5760613287423119e-06 -4.965125610460963e-06 56.87878585436253 1.5902773407317584e-15 1.5902773407317584e-15 6.3611093629270335e-15 166.00026170569882 74.9927933700342 -77.124625284362 -9.506332137798722e-07 -2.7826840279837833e-06 -51.203276962604505 3.1805546814635168e-15 6.361109362927033e-15 -6.361109362927033e-15 153.16486416110655 -59.91294967707697 -133.98672311133126 92.13824844349833 30.73025734769826 -64.50560200260395 -3.975693351829397e-16 1.0345092886055059e-32 -2.9817700138720476e-15 -154.30003671448404 -55.8248182621831 131.42756113233253 -87.6410077180196 11.838325634118585 26.30201725383245 0.0 0.0 -6.3611093629270335e-15
0.5307174921035767 -46.9516487121582 -294.0567932128906 13.143485072022315 15.598477256912744 -5.930522763643928 -4.5393371943878793e-07 -1.2286277896065142e-06 175.02967009373657 -62.911812864494934 -10.69980773645259 4.293374621891975 1.2382849085533638e-06 3.5773090931547816e-06 55.80303602262023 7.951386703658792e-16 0.0 0.0 -142.64824985480766 71.06472182974376 -127.03134094464303 3.556088935179095e-06 5.65042263541076e-06 -60.86780404791788 -1.5902773407317584e-15 0.0 0.0 153.5088707581176 -60.321184340679 -133.49227903894138 91.49139017456015 30.35995407504924 -63.384790167790214 -3.975693351829396e-16 9.939233379573489e-17 1.987846675914698e-15 -153.2984528392242 -55.907020032979226 132.4568537777409 -87.69924411982008 11.641767150452873 26.49612968564997 -7.724336021587778e-32 -1.5902773407317588e-15 -5.565970692561156e-15
0.29674381017684937 -46.96261978149414 -294.4422912597656 15.327061730053744 12.85641478198351 -6.494523320841156 4.984294550625573e-07 1.5661032546530803e-07 176.65871324951402 -66.08922051057095 5.752371897430254 2.8817821053070047 -2.653809618784265e-06 2.4333132980497183e-07 55.32520672649425 7.951386703658792e-15 2.2069531490250793e-31 3.1805546814635168e-15 171.76544010400744 74.31392656398937 -85.52479655039743 1.3912433260151856e-06 5.9567388907431235e-06 -37.14593990405396 -1.590277340731758e-15 -6.3611093629270335e-15 6.3611093629270335e-15 150.44029657546437 -61.77829988111716 -135.09636245864849 91.48644607364788 30.272796594878574 -64.083972060107 0.0 0.0 9.442271710594815e-16 -152.56676129048938 -57.96718326415288 134.6016462846563 -87.80154486117328 11.183543323735481 27.208747233760224 0.0 0.0 -8.945310041616139e-15
